<svg width="100" height="222" viewBox="0 0 100 222" fill="none" xmlns="http://www.w3.org/2000/svg">
<path d="M30.3722 83C26.0522 83 22.2122 83.12 18.4922 83.12C18.6122 64.4 23.4122 56.24 31.5722 56.24C38.7722 56.24 44.8922 58.52 48.8522 58.52C52.6922 58.52 55.3322 54.44 55.3322 52.4C55.3322 50.72 49.2122 49.28 43.0922 49.28C30.0122 49.28 13.9322 64.64 10.2122 83.12H7.09219L2.89219 88.88C2.89219 89.48 3.49219 89.6 4.57219 89.6H9.49219V90.8C9.49219 91.28 9.61219 129.8 9.61219 129.8C9.61219 140.48 9.49219 141.92 2.65219 141.92C1.69219 141.92 1.69219 143 2.65219 143C6.13219 143 12.4922 142.76 14.2922 142.76C16.0922 142.76 22.8122 143 26.2922 143C27.2522 143 27.2522 141.92 26.2922 141.92C19.2122 141.92 18.7322 141.56 18.6122 129.8C18.6122 129.8 18.4922 100.64 18.4922 89.6C22.5722 89.6 26.7722 89.72 30.1322 89.72C32.6522 86.96 35.7722 83.96 35.7722 83.24C35.7722 83 35.0522 83 31.5722 83H30.3722Z" fill="#3E1D52"/>
<path d="M82.2841 111.44C78.5641 108.56 73.2841 105.8 66.9241 105.8C49.6441 105.8 32.4841 120.2 32.4841 140C32.4841 156.56 44.0041 168.2 57.6841 168.2C67.0441 168.2 76.5241 163.16 82.2841 154.76C82.1641 161.6 81.4441 166.4 81.4441 167.12C81.4441 167.96 81.9241 168.44 82.8841 168.2C86.8441 167.36 90.0841 167 97.4041 167C98.3641 167 98.3641 165.92 97.4041 165.92C91.4041 165.92 91.2841 164.48 91.2841 152.72V70.28C91.2841 69.68 89.2441 69.2 88.8841 69.44C84.8041 71.72 80.3641 73.88 74.3641 74.96C73.4041 75.08 73.4041 76.16 74.3641 76.04C80.3641 74.96 82.2841 74.96 82.2841 85.28V111.44ZM61.8841 108.44C70.6441 108.44 77.9641 115.76 82.2841 120.32V152.84C78.2041 159.56 71.1241 164.24 63.8041 164.24C48.9241 164.24 40.8841 149.24 40.8841 135.2C40.8841 117.56 48.9241 108.44 61.8841 108.44Z" fill="#3E1D52"/>
<path d="M64.7523 104.11C69.4273 104.11 75.5873 98.445 75.5873 93.99C75.5873 89.755 73.0573 87.28 70.5823 85.41C71.4623 84.475 71.9023 83.1 73.1673 82.11C73.6073 81.78 73.3323 81.725 72.9473 81.78C72.2873 81.89 69.9773 82.11 67.9973 82.11H60.4073C59.9123 82.11 58.7023 84.09 57.7123 85.3C57.4923 85.575 57.6573 85.63 57.9323 85.575C59.1423 85.41 60.9023 85.41 63.8723 85.41L70.0323 85.465C71.0773 86.895 71.7923 90.14 71.7923 93.66C71.7923 97.675 71.1323 101.965 69.0423 101.965C66.2373 101.965 60.6273 97.785 52.8173 89.095C47.3723 83.045 42.2023 77.16 42.2023 72.87C42.2023 68.745 44.8423 66.215 49.4073 66.215C54.7973 66.215 57.2723 71.165 57.7673 77.325C57.7673 78.205 58.3723 78.205 58.3723 77.325C58.3723 72.815 58.9223 67.865 58.9223 67.865C57.8773 67.095 52.2673 65.72 49.4623 65.775C43.6323 65.885 39.1773 69.845 39.1773 76.445C39.1773 78.7 41.5973 82.44 44.8973 86.51L44.7323 86.4C40.2223 86.95 35.3273 91.735 35.3273 95.805C35.3273 99.765 39.4523 104.275 43.3023 104.275C47.5923 104.275 52.7073 98.995 54.0823 96.575C59.1423 101.635 62.7723 104.11 64.7523 104.11ZM49.0773 91.295C50.7273 93.11 52.2123 94.76 53.6423 96.19C51.8823 99.27 49.2423 101.415 46.3273 101.415C43.5223 101.415 38.8473 97.62 38.6273 93.11C38.8473 89.37 40.5523 87.885 45.1173 86.73C46.3273 88.27 47.7023 89.81 49.0773 91.295Z" fill="#3E1D52"/>
</svg>
