<svg width="106" height="200" viewBox="0 0 106 200" fill="none" xmlns="http://www.w3.org/2000/svg">
<path d="M80.3722 85C76.0522 85 72.2122 85.12 68.4922 85.12C68.6122 66.4 73.4122 58.24 81.5722 58.24C88.7722 58.24 94.8922 60.52 98.8522 60.52C102.692 60.52 105.332 56.44 105.332 54.4C105.332 52.72 99.2122 51.28 93.0922 51.28C80.0122 51.28 63.9322 66.64 60.2122 85.12H57.0922L52.8922 90.88C52.8922 91.48 53.4922 91.6 54.5722 91.6H59.4922V92.8C59.4922 93.28 59.6122 131.8 59.6122 131.8C59.6122 142.48 59.4922 143.92 52.6522 143.92C51.6922 143.92 51.6922 145 52.6522 145C56.1322 145 62.4922 144.76 64.2922 144.76C66.0922 144.76 72.8122 145 76.2922 145C77.2522 145 77.2522 143.92 76.2922 143.92C69.2122 143.92 68.7322 143.56 68.6122 131.8C68.6122 131.8 68.4922 102.64 68.4922 91.6C72.5722 91.6 76.7722 91.72 80.1322 91.72C82.6522 88.96 85.7722 85.96 85.7722 85.24C85.7722 85 85.0522 85 81.5722 85H80.3722Z" fill="#1F1923"/>
<path d="M54.2841 87.44C50.5641 84.56 45.2841 81.8 38.9241 81.8C21.6441 81.8 4.48406 96.2 4.48406 116C4.48406 132.56 16.0041 144.2 29.6841 144.2C39.0441 144.2 48.5241 139.16 54.2841 130.76C54.1641 137.6 53.4441 142.4 53.4441 143.12C53.4441 143.96 53.9241 144.44 54.8841 144.2C58.8441 143.36 62.0841 143 69.4041 143C70.3641 143 70.3641 141.92 69.4041 141.92C63.4041 141.92 63.2841 140.48 63.2841 128.72V46.28C63.2841 45.68 61.2441 45.2 60.8841 45.44C56.8041 47.72 52.3641 49.88 46.3641 50.96C45.4041 51.08 45.4041 52.16 46.3641 52.04C52.3641 50.96 54.2841 50.96 54.2841 61.28V87.44ZM33.8841 84.44C42.6441 84.44 49.9641 91.76 54.2841 96.32V128.84C50.2041 135.56 43.1241 140.24 35.8041 140.24C20.9241 140.24 12.8841 125.24 12.8841 111.2C12.8841 93.56 20.9241 84.44 33.8841 84.44Z" fill="#1F1923"/>
<path d="M87.3405 139.816C87.3405 142.984 89.7405 145.384 92.9085 145.384C95.8845 145.384 98.4765 142.984 98.4765 139.816C98.4765 136.84 95.8845 134.248 92.9085 134.248C89.7405 134.248 87.3405 136.84 87.3405 139.816Z" fill="#1F1923"/>
</svg>
